<svg viewBox="0 0 1858 1042" preserveAspectRatio="xMidYMid slice" class="backgroundLayer" width="1858" height="1042" fill="none" xmlns="http://www.w3.org/2000/svg"><rect width="48" height="195.497" rx="24" transform="scale(-1 1) rotate(45 -1668.563 -1389.081)" fill="#B25EFF"></rect><path d="M1289.95 865.366c.33-.414.66-.829.98-1.26l-70.05-70.034c-.42.315-.85.647-1.26.978l70.33 70.316zM1298.94 848.259c.17-.581.34-1.161.49-1.759l-60.93-60.925c-.58.15-1.16.315-1.76.481l62.2 62.203zM1293.57 860.273c.28-.464.56-.929.83-1.394l-68.28-68.275a63.6 63.6 0 00-1.39.83l68.84 68.839zM1296.59 854.598c.23-.514.46-1.029.68-1.56l-65.31-65.305c-.51.216-1.04.448-1.56.68l66.19 66.185zM1300.5 841.11c.1-.664.17-1.328.25-1.991l-54.88-54.869c-.67.066-1.33.149-1.99.249l56.62 56.611zM1286.37 869.365c.18-.182.36-.381.55-.564l-70.72-70.714c-.18.182-.38.365-.56.547-.18.183-.37.382-.55.564l70.72 70.715c.18-.183.38-.365.56-.548zM1301 832.913c-.02-.78-.05-1.56-.1-2.34l-46.46-46.457c-.79-.066-1.57-.099-2.35-.116l48.91 48.913zM1262.01 785.212l37.78 37.78a44.592 44.592 0 00-.78-3.004l-34.02-34.013c-.97-.282-1.99-.547-2.98-.763zM1247.56 883.901c.78.049 1.56.083 2.34.099l-48.9-48.896c.02.78.05 1.56.1 2.34l46.46 46.457zM1256.12 883.749c.66-.066 1.32-.149 1.99-.249l-56.63-56.611c-.1.664-.17 1.327-.25 1.991l54.89 54.869zM1294.1 808.606a50.729 50.729 0 00-7.73-9.956 50.803 50.803 0 00-9.96-7.731l17.69 17.687zM1236.99 882.023c1 .282 1.99.548 3 .78l-37.78-37.796c.24 1.012.48 2.008.78 3.003l34 34.013zM1207.91 859.408a49.946 49.946 0 007.73 9.955 50.42 50.42 0 009.95 7.732l-17.68-17.687zM1275.88 877.396c.46-.265.93-.547 1.39-.829l-68.84-68.839c-.28.464-.56.929-.83 1.393l68.28 68.275zM1281.11 873.945c.41-.315.84-.647 1.26-.979l-70.34-70.333c-.33.415-.66.83-.97 1.261l70.05 70.051zM1263.5 882.437c.58-.149 1.17-.315 1.76-.481l-62.22-62.219c-.16.581-.33 1.161-.48 1.759l60.94 60.941zM1270.04 880.267c.52-.216 1.05-.448 1.56-.68l-66.18-66.185c-.24.514-.47 1.029-.68 1.559l65.3 65.306z" fill="#D3B8FF"></path><path d="M185.95 839.366a36.8 36.8 0 00.979-1.26l-70.051-70.034c-.415.315-.846.647-1.261.978l70.333 70.316zM194.944 822.259c.166-.581.332-1.161.481-1.759L134.5 759.575c-.581.15-1.161.315-1.759.481l62.203 62.203zM189.566 834.273c.282-.464.564-.929.83-1.394l-68.275-68.275c-.465.266-.93.548-1.394.83l68.839 68.839zM192.587 828.598c.232-.514.465-1.029.68-1.56l-65.305-65.305c-.514.216-1.045.448-1.56.68l66.185 66.185zM196.505 815.11c.099-.664.166-1.328.249-1.991l-54.886-54.869c-.664.066-1.327.149-1.991.249l56.628 56.611zM182.369 843.365c.183-.182.365-.381.548-.564l-70.715-70.714c-.182.182-.381.365-.564.547-.182.183-.365.382-.547.564l70.714 70.715c.182-.183.382-.365.564-.548zM197 806.913c-.017-.78-.05-1.56-.1-2.34l-46.457-46.457a38.524 38.524 0 00-2.356-.116L197 806.913zM158.008 759.212l37.78 37.78a47.124 47.124 0 00-.78-3.004l-34.013-34.013a46.497 46.497 0 00-2.987-.763zM143.557 857.901c.779.049 1.559.083 2.339.099L97 809.104c.017.78.05 1.56.1 2.34l46.457 46.457zM152.117 857.749a39.932 39.932 0 001.991-.249L97.48 800.889c-.1.664-.166 1.327-.25 1.991l54.887 54.869zM190.098 782.606a50.513 50.513 0 00-17.687-17.687l17.687 17.687zM132.99 856.023c.995.282 1.991.548 3.003.78l-37.78-37.796c.233 1.012.481 2.008.78 3.003l33.997 34.013zM103.905 833.408a50.507 50.507 0 0017.687 17.687l-17.687-17.687zM171.879 851.396c.464-.265.929-.547 1.394-.829l-68.84-68.839c-.282.464-.564.929-.829 1.393l68.275 68.275zM177.106 847.945c.415-.315.846-.647 1.261-.979l-70.333-70.333c-.332.415-.664.83-.979 1.261l70.051 70.051zM159.504 856.437c.581-.149 1.161-.315 1.759-.481l-62.22-62.219c-.165.581-.331 1.161-.48 1.759l60.941 60.941zM166.042 854.267a65.754 65.754 0 001.559-.68l-66.184-66.185a43.89 43.89 0 00-.681 1.559l65.306 65.306zM1509.95 231.367c.33-.415.66-.83.98-1.261l-70.05-70.034c-.42.315-.85.647-1.26.979l70.33 70.316zM1518.94 214.259c.17-.581.34-1.161.49-1.759l-60.93-60.925c-.58.149-1.16.315-1.76.481l62.2 62.203zM1513.57 226.273c.28-.464.56-.929.83-1.394l-68.28-68.275a63.6 63.6 0 00-1.39.83l68.84 68.839zM1516.59 220.598c.23-.514.46-1.029.68-1.56l-65.31-65.305c-.51.216-1.04.448-1.56.68l66.19 66.185zM1520.5 207.11c.1-.664.17-1.328.25-1.991l-54.88-54.869c-.67.066-1.33.149-1.99.249l56.62 56.611zM1506.37 235.365c.18-.182.36-.381.55-.564l-70.72-70.714c-.18.182-.38.365-.56.547-.18.183-.37.382-.55.564l70.72 70.715c.18-.183.38-.365.56-.548zM1521 198.913c-.02-.78-.05-1.56-.1-2.34l-46.46-46.457c-.79-.066-1.57-.099-2.35-.116l48.91 48.913zM1482.01 151.212l37.78 37.78a44.592 44.592 0 00-.78-3.004l-34.02-34.013c-.97-.282-1.99-.547-2.98-.763zM1467.56 249.901c.78.049 1.56.082 2.34.099l-48.9-48.896c.02.78.05 1.56.1 2.34l46.46 46.457zM1476.12 249.749c.66-.066 1.32-.149 1.99-.249l-56.63-56.611c-.1.664-.17 1.327-.25 1.991l54.89 54.869zM1514.1 174.606a50.729 50.729 0 00-7.73-9.956 50.803 50.803 0 00-9.96-7.731l17.69 17.687zM1456.99 248.023c1 .282 1.99.548 3 .78l-37.78-37.796c.24 1.012.48 2.008.78 3.003l34 34.013zM1427.91 225.408a49.946 49.946 0 007.73 9.955 50.42 50.42 0 009.95 7.732l-17.68-17.687zM1495.88 243.397a63.6 63.6 0 001.39-.83l-68.84-68.839c-.28.464-.56.929-.83 1.393l68.28 68.276zM1501.11 239.945c.41-.315.84-.647 1.26-.979l-70.34-70.333c-.33.415-.66.83-.97 1.261l70.05 70.051zM1483.5 248.437a80.63 80.63 0 001.76-.481l-62.22-62.219c-.16.581-.33 1.161-.48 1.759l60.94 60.941zM1490.04 246.267c.52-.216 1.05-.448 1.56-.68l-66.18-66.185c-.24.514-.47 1.029-.68 1.559l65.3 65.306z" fill="#7716BD"></path><path d="M528.95 297.366c.331-.414.663-.829.978-1.26l-70.05-70.034c-.415.315-.846.647-1.261.978l70.333 70.316zM537.944 280.259c.166-.581.332-1.161.481-1.759L477.5 217.575c-.581.15-1.161.315-1.759.481l62.203 62.203zM532.566 292.273c.282-.464.564-.929.83-1.394l-68.275-68.275c-.465.266-.93.548-1.394.83l68.839 68.839zM535.587 286.598c.232-.514.465-1.029.68-1.56l-65.305-65.305c-.514.216-1.045.448-1.56.68l66.185 66.185zM539.505 273.11c.099-.664.166-1.328.249-1.991l-54.886-54.869c-.664.066-1.327.149-1.991.249l56.628 56.611zM525.369 301.365c.183-.182.365-.381.548-.564l-70.714-70.714c-.183.182-.382.365-.565.547-.182.183-.365.382-.547.564l70.714 70.715c.183-.183.382-.365.564-.548zM540 264.913c-.017-.78-.05-1.56-.1-2.34l-46.457-46.457a38.524 38.524 0 00-2.356-.116L540 264.913zM501.008 217.212l37.78 37.78a46.464 46.464 0 00-.78-3.004l-34.013-34.013a46.497 46.497 0 00-2.987-.763zM486.557 315.901c.779.049 1.559.083 2.339.099L440 267.104c.017.78.05 1.56.1 2.34l46.457 46.457zM495.117 315.749a39.932 39.932 0 001.991-.249l-56.628-56.611c-.1.664-.166 1.327-.249 1.991l54.886 54.869zM533.098 240.606a50.513 50.513 0 00-17.687-17.687l17.687 17.687zM475.99 314.023c.995.282 1.991.548 3.003.78l-37.78-37.796c.233 1.012.482 2.008.78 3.003l33.997 34.013zM446.905 291.408a50.507 50.507 0 0017.687 17.687l-17.687-17.687zM514.879 309.396c.465-.265.929-.547 1.394-.829l-68.84-68.839c-.282.464-.564.929-.829 1.393l68.275 68.275zM520.106 305.945c.415-.315.846-.647 1.261-.979l-70.333-70.333c-.332.415-.664.83-.979 1.261l70.051 70.051zM502.504 314.437c.581-.149 1.161-.315 1.759-.481l-62.22-62.219c-.165.581-.331 1.161-.481 1.759l60.942 60.941zM509.042 312.267a67.661 67.661 0 001.56-.68l-66.185-66.185c-.232.514-.465 1.029-.68 1.559l65.305 65.306z" fill="#D3B8FF"></path><rect x="1379" y="450.924" width="130" height="461.795" rx="65" transform="rotate(-45 1379 450.924)" fill="#B25EFF"></rect><rect x="1" y="512.924" width="130" height="461.795" rx="65" transform="rotate(-45 1 512.924)" fill="#B25EFF"></rect><rect x="1355.58" y="551.861" width="120" height="656.531" rx="60" transform="rotate(-45 1355.58 551.861)" stroke="#fff" stroke-width="4"></rect><rect x="1236.79" y="433.067" width="120" height="120" rx="60" transform="rotate(-45 1236.79 433.067)" stroke="#fff" stroke-width="4"></rect><rect x="804.477" y=".755" width="120" height="563.565" rx="60" transform="rotate(-45 804.477 .755)" stroke="#fff" stroke-width="4"></rect><rect x=".904" y="393.143" width="180" height="643.434" rx="90" transform="rotate(-45 .904 393.143)" stroke="#fff" stroke-width="4"></rect><circle cx="522.785" cy="469.856" r="24" transform="rotate(-120 522.785 469.856)" stroke="#fff" stroke-width="4"></circle><circle cx="1775.78" cy="488.856" r="24" transform="rotate(-120 1775.78 488.856)" stroke="#fff" stroke-width="4"></circle><circle cx="1406.32" cy="7.32" r="20" transform="rotate(-120 1406.32 7.32)" stroke="#fff" stroke-width="2"></circle><path d="M294.368 70.97c-14.059-14.058-36.853-14.058-50.912 0-14.059 14.06-14.059 36.853 0 50.912M1609.12 179.777c10.72 16.745 32.99 21.63 49.73 10.911 16.75-10.72 21.63-32.984 10.91-49.729M1324.32 967.516c-12.71 15.286-10.63 37.984 4.65 50.694 15.29 12.72 37.99 10.64 50.7-4.65" stroke="#fff" stroke-width="4" stroke-linecap="round"></path><circle cx="404.785" cy="1000.86" r="24" transform="rotate(-120 404.785 1000.86)" stroke="#fff" stroke-width="2"></circle></svg>